REM DIRINDEX 1\2,1\3,1\4,1\6,1\5\7,1\5\8
REM DIRNAME cjc114,folder01,folder02,folder03,folder04,folder05,folder06,folder07
TITLE ""
FILE "DB4500_5th_1A_25.mp3" MP3
  TRACK 01 AUDIO
    TITLE "0:"
    INDEX 01 00:00:00
  TRACK 02 AUDIO
    TITLE "2:cjc114_0761"
    INDEX 01 00:00:03
  TRACK 03 AUDIO
    TITLE "0:"
    INDEX 01 00:01:19
  TRACK 04 AUDIO
    TITLE "3:cjc114_0762"
    INDEX 01 00:01:44
  TRACK 05 AUDIO
    TITLE "0:"
    INDEX 01 00:02:67
  TRACK 06 AUDIO
    TITLE "4:cjc114_0763"
    INDEX 01 00:03:08
  TRACK 07 AUDIO
    TITLE "0:"
    INDEX 01 00:07:13
  TRACK 08 AUDIO
    TITLE "2:cjc114_0764"
    INDEX 01 00:07:62
  TRACK 09 AUDIO
    TITLE "0:"
    INDEX 01 00:09:00
  TRACK 10 AUDIO
    TITLE "3:cjc114_0765"
    INDEX 01 00:09:24
  TRACK 11 AUDIO
    TITLE "0:"
    INDEX 01 00:10:43
  TRACK 12 AUDIO
    TITLE "4:cjc114_0766"
    INDEX 01 00:10:65
  TRACK 13 AUDIO
    TITLE "0:"
    INDEX 01 00:14:60
  TRACK 14 AUDIO
    TITLE "2:cjc114_0767"
    INDEX 01 00:15:30
  TRACK 15 AUDIO
    TITLE "0:"
    INDEX 01 00:16:38
  TRACK 16 AUDIO
    TITLE "3:cjc114_0768"
    INDEX 01 00:16:65
  TRACK 17 AUDIO
    TITLE "0:"
    INDEX 01 00:18:17
  TRACK 18 AUDIO
    TITLE "4:cjc114_0769"
    INDEX 01 00:18:39
  TRACK 19 AUDIO
    TITLE "0:"
    INDEX 01 00:21:62
  TRACK 20 AUDIO
    TITLE "2:cjc114_0770"
    INDEX 01 00:22:36
  TRACK 21 AUDIO
    TITLE "0:"
    INDEX 01 00:23:32
  TRACK 22 AUDIO
    TITLE "3:cjc114_0771"
    INDEX 01 00:23:57
  TRACK 23 AUDIO
    TITLE "0:"
    INDEX 01 00:25:11
  TRACK 24 AUDIO
    TITLE "4:cjc114_0772"
    INDEX 01 00:25:35
  TRACK 25 AUDIO
    TITLE "0:"
    INDEX 01 00:28:53
  TRACK 26 AUDIO
    TITLE "2:cjc114_0773"
    INDEX 01 00:29:27
  TRACK 27 AUDIO
    TITLE "0:"
    INDEX 01 00:31:49
  TRACK 28 AUDIO
    TITLE "3:cjc114_0774"
    INDEX 01 00:32:00
  TRACK 29 AUDIO
    TITLE "0:"
    INDEX 01 00:32:66
  TRACK 30 AUDIO
    TITLE "4:cjc114_0775"
    INDEX 01 00:33:17
  TRACK 31 AUDIO
    TITLE "0:"
    INDEX 01 00:36:60
  TRACK 32 AUDIO
    TITLE "2:cjc114_0776"
    INDEX 01 00:37:34
  TRACK 33 AUDIO
    TITLE "0:"
    INDEX 01 00:38:30
  TRACK 34 AUDIO
    TITLE "3:cjc114_0777"
    INDEX 01 00:38:57
  TRACK 35 AUDIO
    TITLE "0:"
    INDEX 01 00:40:03
  TRACK 36 AUDIO
    TITLE "4:cjc114_0778"
    INDEX 01 00:40:26
  TRACK 37 AUDIO
    TITLE "0:"
    INDEX 01 00:43:29
  TRACK 38 AUDIO
    TITLE "2:cjc114_0779"
    INDEX 01 00:44:05
  TRACK 39 AUDIO
    TITLE "0:"
    INDEX 01 00:45:10
  TRACK 40 AUDIO
    TITLE "3:cjc114_0780"
    INDEX 01 00:45:33
  TRACK 41 AUDIO
    TITLE "0:"
    INDEX 01 00:46:53
  TRACK 42 AUDIO
    TITLE "4:cjc114_0781"
    INDEX 01 00:47:01
  TRACK 43 AUDIO
    TITLE "0:"
    INDEX 01 00:50:03
  TRACK 44 AUDIO
    TITLE "2:cjc114_0782"
    INDEX 01 00:50:50
  TRACK 45 AUDIO
    TITLE "0:"
    INDEX 01 00:51:58
  TRACK 46 AUDIO
    TITLE "3:cjc114_0783"
    INDEX 01 00:52:08
  TRACK 47 AUDIO
    TITLE "0:"
    INDEX 01 00:53:06
  TRACK 48 AUDIO
    TITLE "4:cjc114_0784"
    INDEX 01 00:53:25
  TRACK 49 AUDIO
    TITLE "0:"
    INDEX 01 00:55:50
  TRACK 50 AUDIO
    TITLE "2:cjc114_0785"
    INDEX 01 00:56:27
  TRACK 51 AUDIO
    TITLE "0:"
    INDEX 01 00:57:31
  TRACK 52 AUDIO
    TITLE "3:cjc114_0786"
    INDEX 01 00:57:56
  TRACK 53 AUDIO
    TITLE "0:"
    INDEX 01 00:59:10
  TRACK 54 AUDIO
    TITLE "4:cjc114_0787"
    INDEX 01 00:59:38
  TRACK 55 AUDIO
    TITLE "0:"
    INDEX 01 01:04:09
  TRACK 56 AUDIO
    TITLE "2:cjc114_0788"
    INDEX 01 01:04:62
  TRACK 57 AUDIO
    TITLE "0:"
    INDEX 01 01:05:56
  TRACK 58 AUDIO
    TITLE "3:cjc114_0789"
    INDEX 01 01:06:06
  TRACK 59 AUDIO
    TITLE "0:"
    INDEX 01 01:07:21
  TRACK 60 AUDIO
    TITLE "4:cjc114_0790"
    INDEX 01 01:07:47
  TRACK 61 AUDIO
    TITLE "0:"
    INDEX 01 01:13:22
  TRACK 62 AUDIO
    TITLE "2:cjc114_0791"
    INDEX 01 01:13:73
  TRACK 63 AUDIO
    TITLE "0:"
    INDEX 01 01:16:28
  TRACK 64 AUDIO
    TITLE "3:cjc114_0792"
    INDEX 01 01:16:54
  TRACK 65 AUDIO
    TITLE "0:"
    INDEX 01 01:18:02
  TRACK 66 AUDIO
    TITLE "4:cjc114_0793"
    INDEX 01 01:18:23
  TRACK 67 AUDIO
    TITLE "0:"
    INDEX 01 01:23:13
